<?xml version="1.0" encoding="UTF-8" standalone="no" ?>
<!DOCTYPE svg PUBLIC "-//W3C//DTD SVG 1.1//EN" "http://www.w3.org/Graphics/SVG/1.1/DTD/svg11.dtd">
<svg xmlns="http://www.w3.org/2000/svg" xmlns:xlink="http://www.w3.org/1999/xlink" version="1.1" width="345pt" height="341.004pt" viewBox="0 0 344.99999 341.00399" xml:space="preserve">
<desc>Created with Fabric.js 5.3.0</desc>
<defs>
</defs>
<g transform="matrix(0.7480984037 0 0 0.7480984037 184.9662434754 170.501995)" id="kKnkQECnY7qTquB-7zKc3"  >
<g style=""   >
		<g transform="matrix(1.7966911173 0 0 1.7966911173 -16.2911766355 -3.5219019261)" id="LgPVuyTsUEx8sZ7t2gQmu"  >
<path style="stroke: rgb(233,254,123); stroke-width: 0; stroke-dasharray: none; stroke-linecap: butt; stroke-dashoffset: 0; stroke-linejoin: miter; stroke-miterlimit: 4; fill: rgb(255,255,255); fill-rule: nonzero; opacity: 1;"  transform=" translate(0, 0)" d="M 0 -120.22099 C 66.36199 -120.22099 120.22099 -66.36198999999999 120.22099 0 C 120.22099 66.36199 66.36198999999999 120.22099 0 120.22099 C -66.36199 120.22099 -120.22099 66.36198999999999 -120.22099 0 C -120.22099 -66.36199 -66.36198999999999 -120.22099 0 -120.22099 z" stroke-linecap="round" />
</g>
		<g transform="matrix(0.1777777729 0 0 -0.1777777729 -16.1691462264 -0.6666533924)" id="zWmXB4k_qVR0HiCtKBZrT"  >
<path style="stroke: none; stroke-width: 1; stroke-dasharray: none; stroke-linecap: butt; stroke-dashoffset: 0; stroke-linejoin: miter; stroke-miterlimit: 4; fill: rgb(0,0,0); fill-rule: nonzero; opacity: 1;"  transform=" translate(-1294.5635417524, -1280.0510203912)" d="M 1153 2550 C 592 2491 133 2069 23 1512 C 0 1395 0 1165 23 1048 C 120 553 500 155 986 39 C 1710 -133 2424 323 2567 1048 C 2589 1164 2589 1394 2566 1512 C 2471 2005 2090 2405 1605 2521 C 1457 2556 1304 2566 1153 2550 z M 1418 2474 C 1437 2469 1440 2461 1440 2422 C 1440 2388 1453 2349 1489 2270 C 1558 2122 1558 2131 1507 2072 C 1481 2041 1455 1995 1441 1955 C 1418 1890 1417 1865 1434 1765 L 1440 1735 L 1428 1767 C 1408 1825 1344 1822 1314 1762 C 1303 1742 1292 1724 1288 1722 C 1283 1720 1280 1712 1280 1705 C 1280 1693 1204 1672 1195 1682 C 1193 1683 1183 1708 1172 1735 C 1161 1763 1146 1784 1139 1782 C 1131 1780 1129 1788 1135 1812 C 1166 1947 1167 1955 1154 2010 C 1131 2112 1107 2165 1082 2168 C 1050 2173 1044 2147 1063 2086 C 1072 2057 1082 2011 1086 1984 L 1091 1935 L 1025 2005 C 939 2096 930 2125 959 2219 L 980 2289 L 1044 2319 C 1124 2356 1219 2428 1226 2458 C 1232 2479 1237 2480 1314 2480 C 1358 2480 1405 2477 1418 2474 z M 1131 2450 C 1112 2434 1048 2422 1038 2432 C 1036 2434 1021 2425 1003 2412 C 986 2400 967 2390 961 2390 C 943 2390 883 2230 871 2150 C 866 2111 861 2105 833 2097 C 806 2089 794 2092 742 2124 C 709 2144 679 2167 676 2176 C 672 2185 673 2221 676 2256 L 683 2320 L 734 2344 C 851 2399 905 2420 978 2439 C 1079 2465 1090 2468 1125 2469 L 1155 2469 L 1131 2450 z M 1554 2415 C 1557 2390 1563 2350 1566 2325 C 1569 2300 1568 2280 1565 2280 C 1552 2280 1510 2392 1510 2425 C 1510 2453 1514 2460 1529 2460 C 1545 2460 1550 2451 1554 2415 z M 1711 2409 C 1744 2397 1770 2384 1770 2379 C 1770 2375 1758 2349 1744 2320 C 1719 2270 1719 2267 1725 2112 L 1732 1955 L 1701 1913 C 1667 1866 1576 1790 1554 1790 C 1536 1790 1536 1788 1565 1851 C 1579 1882 1611 1926 1640 1953 C 1683 1994 1689 2003 1680 2020 C 1674 2031 1661 2040 1652 2040 C 1629 2040 1525 1934 1509 1895 L 1496 1865 L 1492 1894 C 1490 1912 1496 1933 1509 1951 C 1521 1967 1530 1983 1530 1988 C 1530 1993 1546 2014 1566 2036 C 1633 2110 1635 2119 1633 2283 C 1632 2381 1635 2430 1642 2430 C 1648 2430 1679 2420 1711 2409 z M 1867 2342 C 1877 2336 1877 2326 1868 2296 C 1857 2262 1811 2200 1796 2200 C 1783 2200 1791 2253 1810 2291 C 1822 2313 1828 2335 1825 2340 C 1818 2352 1850 2353 1867 2342 z M 604 2236 C 591 2162 640 2095 748 2041 C 788 2021 796 2020 848 2031 C 897 2041 905 2040 916 2026 C 922 2016 949 1986 976 1957 C 1014 1915 1020 1904 1006 1902 C 996 1900 976 1903 962 1908 C 947 1914 917 1921 895 1925 C 873 1929 829 1943 798 1957 C 736 1984 710 1982 710 1950 C 710 1916 781 1881 922 1847 L 1052 1815 L 1045 1765 C 1041 1738 1037 1677 1035 1630 C 1033 1553 1029 1538 996 1479 C 959 1411 942 1334 954 1287 C 959 1267 968 1260 999 1255 C 1036 1249 1038 1247 1044 1202 C 1047 1176 1052 1141 1056 1124 C 1062 1093 1059 1091 992 1051 C 953 1028 912 1010 900 1010 C 870 1010 799 965 742 911 C 697 868 695 864 696 811 C 696 766 702 747 725 715 C 762 664 885 560 909 560 C 919 560 937 551 950 540 C 963 529 985 517 999 514 C 1013 511 1043 503 1065 495 C 1087 488 1151 478 1206 475 C 1292 469 1321 471 1396 490 C 1501 516 1616 562 1685 606 C 1713 623 1753 647 1776 658 C 1812 676 1852 706 1928 770 C 1941 781 1955 790 1959 790 C 1968 790 2021 873 2038 913 C 2046 931 2048 960 2044 992 L 2037 1042 L 1986 1036 C 1958 1032 1897 1028 1850 1026 C 1799 1025 1745 1016 1717 1005 C 1691 995 1667 990 1663 993 C 1660 997 1652 996 1646 991 C 1640 986 1602 973 1562 962 L 1488 941 L 1493 983 C 1496 1006 1493 1033 1488 1044 C 1483 1054 1477 1088 1475 1119 C 1473 1150 1467 1202 1462 1235 C 1456 1268 1452 1327 1452 1366 C 1452 1405 1447 1455 1441 1476 C 1435 1497 1430 1542 1430 1576 C 1430 1632 1432 1638 1461 1659 C 1478 1672 1529 1701 1574 1723 C 1662 1767 1753 1849 1783 1912 C 1792 1932 1803 1983 1807 2025 C 1813 2097 1816 2106 1853 2149 C 1892 2194 1972 2249 1999 2250 C 2021 2250 2146 2143 2212 2066 C 2542 1684 2603 1164 2368 720 C 2341 668 2312 618 2304 609 C 2296 601 2290 588 2290 582 C 2290 575 2287 570 2282 570 C 2278 570 2247 536 2212 496 C 2178 455 2118 395 2078 363 C 2038 331 1997 298 1988 289 C 1956 261 1747 163 1662 136 C 1322 29 934 81 635 272 C 294 489 80 879 80 1282 C 80 1635 248 1985 523 2205 C 568 2241 606 2270 608 2270 C 609 2270 608 2255 604 2236 z M 1364 1348 C 1386 1328 1390 1315 1395 1241 C 1398 1195 1404 1152 1407 1146 C 1417 1131 1430 1038 1433 966 L 1435 907 L 1397 890 C 1363 874 1353 874 1313 886 C 1287 894 1246 900 1220 900 C 1143 900 1131 925 1124 1110 L 1120 1225 L 1215 1288 C 1267 1323 1312 1356 1315 1361 C 1324 1375 1337 1372 1364 1348 z M 1976 957 C 1987 946 1950 882 1909 841 C 1861 793 1794 753 1650 684 C 1598 659 1528 626 1495 609 C 1399 562 1318 550 1182 561 C 1043 572 1001 582 966 615 C 952 628 921 648 897 659 C 843 684 828 697 796 744 C 761 796 762 831 800 853 C 827 870 833 870 876 855 C 910 843 931 842 958 849 C 978 855 1006 859 1020 858 C 1094 855 1308 830 1330 822 C 1347 816 1370 817 1400 825 C 1425 832 1468 843 1495 850 C 1602 876 1738 922 1752 937 C 1761 945 1783 955 1801 959 C 1837 967 1968 965 1976 957 z" stroke-linecap="round" />
</g>
</g>
</g>
</svg>